# xmcd
#
# Track frame offsets:
#	150
#	9862
#	20027
#	27715
#	38837
#	47612
#	57427
#	66165
#	75457
#	84375
#	94222
#	104440
#	113595
#	125727
#	136997
#	148677
#	157740
#	169545
#	178592
#	190002
#	200497
#	210012
#	221237
#	230077
#
# Disc length: 3204 seconds
#
# Revision: 0
# Processed by: cddbd v1.5.1PL2 Copyright (c) Steve Scherf et al.
# Submitted via: dBpowerAMP V4.0
#
DISCID=470c8218
DTITLE=Fats Domino - Fats Domino - The Originals - Vol.  7
DYEAR=1993
DGENRE=R&B
TTITLE0=The Rooster Song
TTITLE1=My Happiness
TTITLE2=As Time Goes By
TTITLE3=Hey La Bas (Boogie)
TTITLE4=Love Me
TTITLE5=Don't You Hear Me Calling You
TTITLE6=Valley Of Tears
TTITLE7=Where Did You Stay
TTITLE8=Baby Please
TTITLE9=Thinking Of You (Oh Mother Dear)
TTITLE10=You Know I Miss You
TTITLE11=The Big Beat
TTITLE12=I'll Be Glad When Your Dead You Rascal You
TTITLE13=What Will I Tell My Heart
TTITLE14=Barrelhouse
TTITLE15=Little Mary
TTITLE16=Sick and Tired
TTITLE17=I Want You To Know
TTITLE18='44'
TTITLE19=Mardi Grass In New Orleans
TTITLE20=I Can't Go On (I Might As Well Confess)
TTITLE21=Long Lonesome Journey
TTITLE22=Young School Girl
TTITLE23=Country Boy
EXTD=R&B
EXTT0=
EXTT1=
EXTT2=
EXTT3=
EXTT4=
EXTT5=
EXTT6=
EXTT7=
EXTT8=
EXTT9=
EXTT10=
EXTT11=
EXTT12=
EXTT13=
EXTT14=
EXTT15=
EXTT16=
EXTT17=
EXTT18=
EXTT19=
EXTT20=
EXTT21=
EXTT22=
EXTT23=
PLAYORDER=
